<mxfile host="app.diagrams.net" agent="Mozilla/5.0 (Windows NT 10.0; Win64; x64) AppleWebKit/537.36 (KHTML, like Gecko) Chrome/131.0.0.0 Safari/537.36" version="25.0.3">
  <diagram name="‫صفحه - 1‬" id="bLqCYTSYj3lAicjzr85S">
    <mxGraphModel dx="1395" dy="615" grid="1" gridSize="10" guides="1" tooltips="1" connect="1" arrows="1" fold="1" page="1" pageScale="1" pageWidth="1169" pageHeight="827" math="0" shadow="0">
      <root>
        <mxCell id="0" />
        <mxCell id="1" parent="0" />
        <mxCell id="kuwjXqPEBo-wIi-cXMix-30" value="freelancer" style="rounded=1;whiteSpace=wrap;html=1;" parent="1" vertex="1">
          <mxGeometry x="1029" y="100" width="80" height="30" as="geometry" />
        </mxCell>
        <mxCell id="kuwjXqPEBo-wIi-cXMix-31" value="employer" style="rounded=1;whiteSpace=wrap;html=1;" parent="1" vertex="1">
          <mxGeometry x="560" y="167" width="80" height="30" as="geometry" />
        </mxCell>
        <mxCell id="kuwjXqPEBo-wIi-cXMix-32" value="admin" style="rounded=1;whiteSpace=wrap;html=1;" parent="1" vertex="1">
          <mxGeometry x="200" y="47" width="80" height="30" as="geometry" />
        </mxCell>
        <mxCell id="kuwjXqPEBo-wIi-cXMix-34" value="" style="endArrow=none;html=1;rounded=0;exitX=0.5;exitY=0;exitDx=0;exitDy=0;entryX=0.584;entryY=0.993;entryDx=0;entryDy=0;entryPerimeter=0;" parent="1" source="kuwjXqPEBo-wIi-cXMix-31" target="ZuLKpIjIV_RpldXdc8ew-1" edge="1">
          <mxGeometry width="50" height="50" relative="1" as="geometry">
            <mxPoint x="600" y="140" as="sourcePoint" />
            <mxPoint x="600" y="100" as="targetPoint" />
          </mxGeometry>
        </mxCell>
        <mxCell id="kuwjXqPEBo-wIi-cXMix-35" value="" style="endArrow=none;html=1;rounded=0;exitX=1;exitY=0;exitDx=0;exitDy=0;entryX=0;entryY=0.5;entryDx=0;entryDy=0;" parent="1" source="kuwjXqPEBo-wIi-cXMix-32" target="ZuLKpIjIV_RpldXdc8ew-1" edge="1">
          <mxGeometry width="50" height="50" relative="1" as="geometry">
            <mxPoint x="350" y="200" as="sourcePoint" />
            <mxPoint x="590" y="100" as="targetPoint" />
          </mxGeometry>
        </mxCell>
        <mxCell id="kuwjXqPEBo-wIi-cXMix-36" value="" style="endArrow=none;html=1;rounded=0;exitX=0.5;exitY=0;exitDx=0;exitDy=0;entryX=0.5;entryY=1;entryDx=0;entryDy=0;" parent="1" source="kuwjXqPEBo-wIi-cXMix-30" target="ZuLKpIjIV_RpldXdc8ew-1" edge="1">
          <mxGeometry width="50" height="50" relative="1" as="geometry">
            <mxPoint x="830" y="180" as="sourcePoint" />
            <mxPoint x="-260" y="170" as="targetPoint" />
          </mxGeometry>
        </mxCell>
        <mxCell id="kuwjXqPEBo-wIi-cXMix-38" value="" style="endArrow=none;html=1;rounded=0;exitX=0.5;exitY=0;exitDx=0;exitDy=0;" parent="1" source="ZuLKpIjIV_RpldXdc8ew-5" edge="1">
          <mxGeometry width="50" height="50" relative="1" as="geometry">
            <mxPoint x="270" y="41" as="sourcePoint" />
            <mxPoint x="290" y="231" as="targetPoint" />
          </mxGeometry>
        </mxCell>
        <mxCell id="ZuLKpIjIV_RpldXdc8ew-1" value="" style="shape=hexagon;perimeter=hexagonPerimeter2;whiteSpace=wrap;html=1;fixedSize=1;" parent="1" vertex="1">
          <mxGeometry x="500" width="170" height="100" as="geometry" />
        </mxCell>
        <mxCell id="kuwjXqPEBo-wIi-cXMix-28" value="dashboard&lt;div&gt;layout&lt;/div&gt;" style="rounded=0;whiteSpace=wrap;html=1;" parent="1" vertex="1">
          <mxGeometry x="525" y="20" width="120" height="60" as="geometry" />
        </mxCell>
        <mxCell id="ZuLKpIjIV_RpldXdc8ew-2" value="" style="endArrow=classic;html=1;rounded=0;exitX=1;exitY=0.5;exitDx=0;exitDy=0;" parent="1" source="ZuLKpIjIV_RpldXdc8ew-1" edge="1">
          <mxGeometry width="50" height="50" relative="1" as="geometry">
            <mxPoint x="695" y="60" as="sourcePoint" />
            <mxPoint x="745" y="50" as="targetPoint" />
          </mxGeometry>
        </mxCell>
        <mxCell id="ZuLKpIjIV_RpldXdc8ew-3" value="auth guard" style="text;html=1;align=center;verticalAlign=middle;whiteSpace=wrap;rounded=0;" parent="1" vertex="1">
          <mxGeometry x="755" y="35" width="60" height="30" as="geometry" />
        </mxCell>
        <mxCell id="ZuLKpIjIV_RpldXdc8ew-5" value="category" style="swimlane;fontStyle=0;childLayout=stackLayout;horizontal=1;startSize=30;horizontalStack=0;resizeParent=1;resizeParentMax=0;resizeLast=0;collapsible=1;marginBottom=0;whiteSpace=wrap;html=1;" parent="1" vertex="1">
          <mxGeometry x="60" y="231" width="105" height="120" as="geometry">
            <mxRectangle x="227.5" y="280" width="90" height="30" as="alternateBounds" />
          </mxGeometry>
        </mxCell>
        <mxCell id="ZuLKpIjIV_RpldXdc8ew-6" value="create category" style="text;strokeColor=none;fillColor=none;align=left;verticalAlign=middle;spacingLeft=4;spacingRight=4;overflow=hidden;points=[[0,0.5],[1,0.5]];portConstraint=eastwest;rotatable=0;whiteSpace=wrap;html=1;" parent="ZuLKpIjIV_RpldXdc8ew-5" vertex="1">
          <mxGeometry y="30" width="105" height="30" as="geometry" />
        </mxCell>
        <mxCell id="ZuLKpIjIV_RpldXdc8ew-7" value="update category" style="text;strokeColor=none;fillColor=none;align=left;verticalAlign=middle;spacingLeft=4;spacingRight=4;overflow=hidden;points=[[0,0.5],[1,0.5]];portConstraint=eastwest;rotatable=0;whiteSpace=wrap;html=1;" parent="ZuLKpIjIV_RpldXdc8ew-5" vertex="1">
          <mxGeometry y="60" width="105" height="30" as="geometry" />
        </mxCell>
        <mxCell id="ZuLKpIjIV_RpldXdc8ew-8" value="delete category&lt;div&gt;&lt;br&gt;&lt;/div&gt;" style="text;strokeColor=none;fillColor=none;align=left;verticalAlign=middle;spacingLeft=4;spacingRight=4;overflow=hidden;points=[[0,0.5],[1,0.5]];portConstraint=eastwest;rotatable=0;whiteSpace=wrap;html=1;" parent="ZuLKpIjIV_RpldXdc8ew-5" vertex="1">
          <mxGeometry y="90" width="105" height="30" as="geometry" />
        </mxCell>
        <mxCell id="ZuLKpIjIV_RpldXdc8ew-10" value="one page and modal" style="text;html=1;align=center;verticalAlign=middle;whiteSpace=wrap;rounded=0;rotation=-90;" parent="1" vertex="1">
          <mxGeometry x="10" y="276" width="60" height="30" as="geometry" />
        </mxCell>
        <mxCell id="ZuLKpIjIV_RpldXdc8ew-12" value="" style="endArrow=none;html=1;rounded=0;exitX=0.512;exitY=0;exitDx=0;exitDy=0;exitPerimeter=0;" parent="1" source="ZuLKpIjIV_RpldXdc8ew-13" edge="1">
          <mxGeometry width="50" height="50" relative="1" as="geometry">
            <mxPoint x="-70" y="367" as="sourcePoint" />
            <mxPoint x="240" y="367" as="targetPoint" />
          </mxGeometry>
        </mxCell>
        <mxCell id="ZuLKpIjIV_RpldXdc8ew-13" value="blog" style="swimlane;fontStyle=0;childLayout=stackLayout;horizontal=1;startSize=30;horizontalStack=0;resizeParent=1;resizeParentMax=0;resizeLast=0;collapsible=1;marginBottom=0;whiteSpace=wrap;html=1;" parent="1" vertex="1">
          <mxGeometry x="60" y="367" width="102.5" height="210" as="geometry" />
        </mxCell>
        <mxCell id="ZuLKpIjIV_RpldXdc8ew-28" style="edgeStyle=orthogonalEdgeStyle;rounded=0;orthogonalLoop=1;jettySize=auto;html=1;" parent="ZuLKpIjIV_RpldXdc8ew-13" source="ZuLKpIjIV_RpldXdc8ew-14" edge="1">
          <mxGeometry relative="1" as="geometry">
            <mxPoint x="-40" y="45" as="targetPoint" />
          </mxGeometry>
        </mxCell>
        <mxCell id="ZuLKpIjIV_RpldXdc8ew-14" value="&amp;nbsp;/ create blog" style="text;strokeColor=none;fillColor=none;align=left;verticalAlign=middle;spacingLeft=4;spacingRight=4;overflow=hidden;points=[[0,0.5],[1,0.5]];portConstraint=eastwest;rotatable=0;whiteSpace=wrap;html=1;" parent="ZuLKpIjIV_RpldXdc8ew-13" vertex="1">
          <mxGeometry y="30" width="102.5" height="30" as="geometry" />
        </mxCell>
        <mxCell id="ZuLKpIjIV_RpldXdc8ew-30" style="edgeStyle=orthogonalEdgeStyle;rounded=0;orthogonalLoop=1;jettySize=auto;html=1;" parent="ZuLKpIjIV_RpldXdc8ew-13" source="ZuLKpIjIV_RpldXdc8ew-15" edge="1">
          <mxGeometry relative="1" as="geometry">
            <mxPoint x="-40" y="75" as="targetPoint" />
          </mxGeometry>
        </mxCell>
        <mxCell id="ZuLKpIjIV_RpldXdc8ew-15" value="/ create blog / 1" style="text;strokeColor=none;fillColor=none;align=left;verticalAlign=middle;spacingLeft=4;spacingRight=4;overflow=hidden;points=[[0,0.5],[1,0.5]];portConstraint=eastwest;rotatable=0;whiteSpace=wrap;html=1;" parent="ZuLKpIjIV_RpldXdc8ew-13" vertex="1">
          <mxGeometry y="60" width="102.5" height="30" as="geometry" />
        </mxCell>
        <mxCell id="ZuLKpIjIV_RpldXdc8ew-25" value="all blogs" style="text;strokeColor=none;fillColor=none;align=left;verticalAlign=middle;spacingLeft=4;spacingRight=4;overflow=hidden;points=[[0,0.5],[1,0.5]];portConstraint=eastwest;rotatable=0;whiteSpace=wrap;html=1;" parent="ZuLKpIjIV_RpldXdc8ew-13" vertex="1">
          <mxGeometry y="90" width="102.5" height="30" as="geometry" />
        </mxCell>
        <mxCell id="ZuLKpIjIV_RpldXdc8ew-21" value="blog comments approve" style="swimlane;fontStyle=0;childLayout=stackLayout;horizontal=1;startSize=50;horizontalStack=0;resizeParent=1;resizeParentMax=0;resizeLast=0;collapsible=1;marginBottom=0;whiteSpace=wrap;html=1;" parent="ZuLKpIjIV_RpldXdc8ew-13" vertex="1">
          <mxGeometry y="120" width="102.5" height="90" as="geometry" />
        </mxCell>
        <mxCell id="ZuLKpIjIV_RpldXdc8ew-22" value="all comments" style="text;strokeColor=none;fillColor=none;align=left;verticalAlign=middle;spacingLeft=4;spacingRight=4;overflow=hidden;points=[[0,0.5],[1,0.5]];portConstraint=eastwest;rotatable=0;whiteSpace=wrap;html=1;" parent="ZuLKpIjIV_RpldXdc8ew-21" vertex="1">
          <mxGeometry y="50" width="102.5" height="40" as="geometry" />
        </mxCell>
        <mxCell id="ZuLKpIjIV_RpldXdc8ew-18" value="&lt;font style=&quot;font-size: 9px;&quot;&gt;limit the comments length&lt;/font&gt;&lt;div&gt;&lt;font size=&quot;1&quot;&gt;when hover open complete commen modal&lt;/font&gt;&lt;/div&gt;" style="text;html=1;align=center;verticalAlign=middle;whiteSpace=wrap;rounded=0;" parent="1" vertex="1">
          <mxGeometry width="120" height="70" as="geometry" />
        </mxCell>
        <mxCell id="ZuLKpIjIV_RpldXdc8ew-31" value="&lt;font style=&quot;font-size: 6px;&quot;&gt;one component&lt;/font&gt;" style="rounded=0;whiteSpace=wrap;html=1;" parent="1" vertex="1">
          <mxGeometry y="412" width="30" height="30" as="geometry" />
        </mxCell>
        <mxCell id="ZuLKpIjIV_RpldXdc8ew-44" value="" style="endArrow=none;html=1;rounded=0;entryX=0.514;entryY=0.003;entryDx=0;entryDy=0;entryPerimeter=0;" parent="1" target="ZuLKpIjIV_RpldXdc8ew-32" edge="1">
          <mxGeometry width="50" height="50" relative="1" as="geometry">
            <mxPoint x="240" y="97" as="sourcePoint" />
            <mxPoint x="116.52499999999998" y="167" as="targetPoint" />
          </mxGeometry>
        </mxCell>
        <mxCell id="ZuLKpIjIV_RpldXdc8ew-46" value="profile" style="swimlane;fontStyle=0;childLayout=stackLayout;horizontal=1;startSize=30;horizontalStack=0;resizeParent=1;resizeParentMax=0;resizeLast=0;collapsible=1;marginBottom=0;whiteSpace=wrap;html=1;" parent="1" vertex="1">
          <mxGeometry x="289.99999999999994" y="97" width="101.95" height="60" as="geometry" />
        </mxCell>
        <mxCell id="ZuLKpIjIV_RpldXdc8ew-47" value="approve profile&amp;nbsp;" style="text;strokeColor=none;fillColor=none;align=left;verticalAlign=middle;spacingLeft=4;spacingRight=4;overflow=hidden;points=[[0,0.5],[1,0.5]];portConstraint=eastwest;rotatable=0;whiteSpace=wrap;html=1;" parent="ZuLKpIjIV_RpldXdc8ew-46" vertex="1">
          <mxGeometry y="30" width="101.95" height="30" as="geometry" />
        </mxCell>
        <mxCell id="ZuLKpIjIV_RpldXdc8ew-50" value="" style="endArrow=none;html=1;rounded=0;entryX=0;entryY=0;entryDx=0;entryDy=0;" parent="1" target="ZuLKpIjIV_RpldXdc8ew-46" edge="1">
          <mxGeometry width="50" height="50" relative="1" as="geometry">
            <mxPoint x="240" y="97" as="sourcePoint" />
            <mxPoint x="450" y="67" as="targetPoint" />
          </mxGeometry>
        </mxCell>
        <mxCell id="ZuLKpIjIV_RpldXdc8ew-51" value="one page and modal" style="text;html=1;align=center;verticalAlign=middle;whiteSpace=wrap;rounded=0;rotation=-90;" parent="1" vertex="1">
          <mxGeometry x="10" y="137" width="60" height="30" as="geometry" />
        </mxCell>
        <mxCell id="ZuLKpIjIV_RpldXdc8ew-52" value="project" style="swimlane;fontStyle=0;childLayout=stackLayout;horizontal=1;startSize=30;horizontalStack=0;resizeParent=1;resizeParentMax=0;resizeLast=0;collapsible=1;marginBottom=0;whiteSpace=wrap;html=1;" parent="1" vertex="1">
          <mxGeometry x="290" y="367" width="101.95" height="90" as="geometry" />
        </mxCell>
        <mxCell id="ZuLKpIjIV_RpldXdc8ew-53" value="&lt;font style=&quot;font-size: 9px;&quot;&gt;all unconfirmed project&lt;/font&gt;" style="text;strokeColor=none;fillColor=none;align=left;verticalAlign=middle;spacingLeft=4;spacingRight=4;overflow=hidden;points=[[0,0.5],[1,0.5]];portConstraint=eastwest;rotatable=0;whiteSpace=wrap;html=1;" parent="ZuLKpIjIV_RpldXdc8ew-52" vertex="1">
          <mxGeometry y="30" width="101.95" height="30" as="geometry" />
        </mxCell>
        <mxCell id="ZuLKpIjIV_RpldXdc8ew-59" value="approve pr&lt;span style=&quot;color: rgba(0, 0, 0, 0); font-family: monospace; font-size: 0px; text-wrap-mode: nowrap;&quot;&gt;%3CmxGraphModel%3E%3Croot%3E%3CmxCell%20id%3D%220%22%2F%3E%3CmxCell%20id%3D%221%22%20parent%3D%220%22%2F%3E%3CmxCell%20id%3D%222%22%20value%3D%22profile%22%20style%3D%22swimlane%3BfontStyle%3D0%3BchildLayout%3DstackLayout%3Bhorizontal%3D1%3BstartSize%3D30%3BhorizontalStack%3D0%3BresizeParent%3D1%3BresizeParentMax%3D0%3BresizeLast%3D0%3Bcollapsible%3D1%3BmarginBottom%3D0%3BwhiteSpace%3Dwrap%3Bhtml%3D1%3B%22%20vertex%3D%221%22%20parent%3D%221%22%3E%3CmxGeometry%20x%3D%22528.05%22%20y%3D%22280%22%20width%3D%22101.95%22%20height%3D%2260%22%20as%3D%22geometry%22%2F%3E%3C%2FmxCell%3E%3CmxCell%20id%3D%223%22%20value%3D%22approve%20profile%26amp%3Bnbsp%3B%22%20style%3D%22text%3BstrokeColor%3Dnone%3BfillColor%3Dnone%3Balign%3Dleft%3BverticalAlign%3Dmiddle%3BspacingLeft%3D4%3BspacingRight%3D4%3Boverflow%3Dhidden%3Bpoints%3D%5B%5B0%2C0.5%5D%2C%5B1%2C0.5%5D%5D%3BportConstraint%3Deastwest%3Brotatable%3D0%3BwhiteSpace%3Dwrap%3Bhtml%3D1%3B%22%20vertex%3D%221%22%20parent%3D%222%22%3E%3CmxGeometry%20y%3D%2230%22%20width%3D%22101.95%22%20height%3D%2230%22%20as%3D%22geometry%22%2F%3E%3C%2FmxCell%3E%3C%2Froot%3E%3C%2FmxGraphModel%3E&lt;/span&gt;oject" style="text;strokeColor=none;fillColor=none;align=left;verticalAlign=middle;spacingLeft=4;spacingRight=4;overflow=hidden;points=[[0,0.5],[1,0.5]];portConstraint=eastwest;rotatable=0;whiteSpace=wrap;html=1;" parent="ZuLKpIjIV_RpldXdc8ew-52" vertex="1">
          <mxGeometry y="60" width="101.95" height="30" as="geometry" />
        </mxCell>
        <mxCell id="ZuLKpIjIV_RpldXdc8ew-54" value="" style="endArrow=none;html=1;rounded=0;entryX=0;entryY=0;entryDx=0;entryDy=0;" parent="1" target="ZuLKpIjIV_RpldXdc8ew-52" edge="1">
          <mxGeometry width="50" height="50" relative="1" as="geometry">
            <mxPoint x="240" y="367" as="sourcePoint" />
            <mxPoint x="510" y="72" as="targetPoint" />
          </mxGeometry>
        </mxCell>
        <mxCell id="ZuLKpIjIV_RpldXdc8ew-32" value="project category" style="swimlane;fontStyle=0;childLayout=stackLayout;horizontal=1;startSize=30;horizontalStack=0;resizeParent=1;resizeParentMax=0;resizeLast=0;collapsible=1;marginBottom=0;whiteSpace=wrap;html=1;" parent="1" vertex="1">
          <mxGeometry x="63.05000000000001" y="97" width="106.95" height="120" as="geometry" />
        </mxCell>
        <mxCell id="ZuLKpIjIV_RpldXdc8ew-33" value="&lt;font style=&quot;font-size: 9px;&quot;&gt;create project category&lt;/font&gt;" style="text;strokeColor=none;fillColor=none;align=left;verticalAlign=middle;spacingLeft=4;spacingRight=4;overflow=hidden;points=[[0,0.5],[1,0.5]];portConstraint=eastwest;rotatable=0;whiteSpace=wrap;html=1;" parent="ZuLKpIjIV_RpldXdc8ew-32" vertex="1">
          <mxGeometry y="30" width="106.95" height="30" as="geometry" />
        </mxCell>
        <mxCell id="ZuLKpIjIV_RpldXdc8ew-34" value="&lt;font style=&quot;font-size: 9px;&quot;&gt;delete project category&amp;nbsp;&lt;/font&gt;" style="text;strokeColor=none;fillColor=none;align=left;verticalAlign=middle;spacingLeft=4;spacingRight=4;overflow=hidden;points=[[0,0.5],[1,0.5]];portConstraint=eastwest;rotatable=0;whiteSpace=wrap;html=1;" parent="ZuLKpIjIV_RpldXdc8ew-32" vertex="1">
          <mxGeometry y="60" width="106.95" height="30" as="geometry" />
        </mxCell>
        <mxCell id="ZuLKpIjIV_RpldXdc8ew-35" value="&lt;font style=&quot;font-size: 9px;&quot;&gt;update project category&lt;/font&gt;" style="text;strokeColor=none;fillColor=none;align=left;verticalAlign=middle;spacingLeft=4;spacingRight=4;overflow=hidden;points=[[0,0.5],[1,0.5]];portConstraint=eastwest;rotatable=0;whiteSpace=wrap;html=1;" parent="ZuLKpIjIV_RpldXdc8ew-32" vertex="1">
          <mxGeometry y="90" width="106.95" height="30" as="geometry" />
        </mxCell>
        <mxCell id="ZuLKpIjIV_RpldXdc8ew-60" value="one page and modal" style="text;html=1;align=center;verticalAlign=middle;whiteSpace=wrap;rounded=0;rotation=-90;" parent="1" vertex="1">
          <mxGeometry x="240" y="397" width="60" height="30" as="geometry" />
        </mxCell>
        <mxCell id="ZuLKpIjIV_RpldXdc8ew-66" value="ticket" style="swimlane;fontStyle=0;childLayout=stackLayout;horizontal=1;startSize=30;horizontalStack=0;resizeParent=1;resizeParentMax=0;resizeLast=0;collapsible=1;marginBottom=0;whiteSpace=wrap;html=1;" parent="1" vertex="1">
          <mxGeometry x="290" y="231" width="101.95" height="120" as="geometry" />
        </mxCell>
        <mxCell id="ZuLKpIjIV_RpldXdc8ew-67" value="all tickets&amp;nbsp;" style="text;strokeColor=none;fillColor=none;align=left;verticalAlign=middle;spacingLeft=4;spacingRight=4;overflow=hidden;points=[[0,0.5],[1,0.5]];portConstraint=eastwest;rotatable=0;whiteSpace=wrap;html=1;" parent="ZuLKpIjIV_RpldXdc8ew-66" vertex="1">
          <mxGeometry y="30" width="101.95" height="30" as="geometry" />
        </mxCell>
        <mxCell id="ZuLKpIjIV_RpldXdc8ew-68" value="&lt;font style=&quot;font-size: 10px;&quot;&gt;update ticket status&lt;/font&gt;" style="text;strokeColor=none;fillColor=none;align=left;verticalAlign=middle;spacingLeft=4;spacingRight=4;overflow=hidden;points=[[0,0.5],[1,0.5]];portConstraint=eastwest;rotatable=0;whiteSpace=wrap;html=1;" parent="ZuLKpIjIV_RpldXdc8ew-66" vertex="1">
          <mxGeometry y="60" width="101.95" height="30" as="geometry" />
        </mxCell>
        <mxCell id="ZuLKpIjIV_RpldXdc8ew-69" value="ticket response" style="text;strokeColor=none;fillColor=none;align=left;verticalAlign=middle;spacingLeft=4;spacingRight=4;overflow=hidden;points=[[0,0.5],[1,0.5]];portConstraint=eastwest;rotatable=0;whiteSpace=wrap;html=1;" parent="ZuLKpIjIV_RpldXdc8ew-66" vertex="1">
          <mxGeometry y="90" width="101.95" height="30" as="geometry" />
        </mxCell>
        <mxCell id="ZuLKpIjIV_RpldXdc8ew-74" value="" style="endArrow=none;html=1;rounded=0;entryX=0.5;entryY=0;entryDx=0;entryDy=0;" parent="1" target="ZuLKpIjIV_RpldXdc8ew-66" edge="1">
          <mxGeometry width="50" height="50" relative="1" as="geometry">
            <mxPoint x="230" y="231" as="sourcePoint" />
            <mxPoint x="590" y="-39" as="targetPoint" />
          </mxGeometry>
        </mxCell>
        <mxCell id="ZuLKpIjIV_RpldXdc8ew-76" value="" style="endArrow=none;dashed=1;html=1;rounded=0;entryX=0.5;entryY=1;entryDx=0;entryDy=0;" parent="1" target="kuwjXqPEBo-wIi-cXMix-32" edge="1">
          <mxGeometry width="50" height="50" relative="1" as="geometry">
            <mxPoint x="240" y="587" as="sourcePoint" />
            <mxPoint x="430" y="67" as="targetPoint" />
          </mxGeometry>
        </mxCell>
        <mxCell id="ZuLKpIjIV_RpldXdc8ew-80" value="user" style="swimlane;fontStyle=0;childLayout=stackLayout;horizontal=1;startSize=30;horizontalStack=0;resizeParent=1;resizeParentMax=0;resizeLast=0;collapsible=1;marginBottom=0;whiteSpace=wrap;html=1;" parent="1" vertex="1">
          <mxGeometry x="290" y="467" width="100" height="150" as="geometry" />
        </mxCell>
        <mxCell id="ZuLKpIjIV_RpldXdc8ew-81" value="all users" style="text;strokeColor=none;fillColor=none;align=left;verticalAlign=middle;spacingLeft=4;spacingRight=4;overflow=hidden;points=[[0,0.5],[1,0.5]];portConstraint=eastwest;rotatable=0;whiteSpace=wrap;html=1;" parent="ZuLKpIjIV_RpldXdc8ew-80" vertex="1">
          <mxGeometry y="30" width="100" height="30" as="geometry" />
        </mxCell>
        <mxCell id="ZuLKpIjIV_RpldXdc8ew-82" value="user id&amp;nbsp;" style="text;strokeColor=none;fillColor=none;align=left;verticalAlign=middle;spacingLeft=4;spacingRight=4;overflow=hidden;points=[[0,0.5],[1,0.5]];portConstraint=eastwest;rotatable=0;whiteSpace=wrap;html=1;" parent="ZuLKpIjIV_RpldXdc8ew-80" vertex="1">
          <mxGeometry y="60" width="100" height="30" as="geometry" />
        </mxCell>
        <mxCell id="ZuLKpIjIV_RpldXdc8ew-83" value="delete user" style="text;strokeColor=none;fillColor=none;align=left;verticalAlign=middle;spacingLeft=4;spacingRight=4;overflow=hidden;points=[[0,0.5],[1,0.5]];portConstraint=eastwest;rotatable=0;whiteSpace=wrap;html=1;" parent="ZuLKpIjIV_RpldXdc8ew-80" vertex="1">
          <mxGeometry y="90" width="100" height="30" as="geometry" />
        </mxCell>
        <mxCell id="ZuLKpIjIV_RpldXdc8ew-85" value="show error user&amp;nbsp;" style="text;strokeColor=none;fillColor=none;align=left;verticalAlign=middle;spacingLeft=4;spacingRight=4;overflow=hidden;points=[[0,0.5],[1,0.5]];portConstraint=eastwest;rotatable=0;whiteSpace=wrap;html=1;" parent="ZuLKpIjIV_RpldXdc8ew-80" vertex="1">
          <mxGeometry y="120" width="100" height="30" as="geometry" />
        </mxCell>
        <mxCell id="ZuLKpIjIV_RpldXdc8ew-84" value="" style="endArrow=none;html=1;rounded=0;entryX=0.5;entryY=0;entryDx=0;entryDy=0;" parent="1" target="ZuLKpIjIV_RpldXdc8ew-80" edge="1">
          <mxGeometry width="50" height="50" relative="1" as="geometry">
            <mxPoint x="240" y="467" as="sourcePoint" />
            <mxPoint x="420" y="437" as="targetPoint" />
          </mxGeometry>
        </mxCell>
        <mxCell id="T-i3WnVVgZQzShkGEVg3-1" value="university" style="swimlane;fontStyle=0;childLayout=stackLayout;horizontal=1;startSize=30;horizontalStack=0;resizeParent=1;resizeParentMax=0;resizeLast=0;collapsible=1;marginBottom=0;whiteSpace=wrap;html=1;" vertex="1" parent="1">
          <mxGeometry x="60" y="587" width="100" height="240" as="geometry" />
        </mxCell>
        <mxCell id="T-i3WnVVgZQzShkGEVg3-2" value="create uni" style="text;strokeColor=none;fillColor=none;align=left;verticalAlign=middle;spacingLeft=4;spacingRight=4;overflow=hidden;points=[[0,0.5],[1,0.5]];portConstraint=eastwest;rotatable=0;whiteSpace=wrap;html=1;" vertex="1" parent="T-i3WnVVgZQzShkGEVg3-1">
          <mxGeometry y="30" width="100" height="30" as="geometry" />
        </mxCell>
        <mxCell id="T-i3WnVVgZQzShkGEVg3-57" value="&lt;font style=&quot;font-size: 11px;&quot;&gt;update uni&lt;/font&gt;" style="text;strokeColor=none;fillColor=none;align=left;verticalAlign=middle;spacingLeft=4;spacingRight=4;overflow=hidden;points=[[0,0.5],[1,0.5]];portConstraint=eastwest;rotatable=0;whiteSpace=wrap;html=1;" vertex="1" parent="T-i3WnVVgZQzShkGEVg3-1">
          <mxGeometry y="60" width="100" height="30" as="geometry" />
        </mxCell>
        <mxCell id="T-i3WnVVgZQzShkGEVg3-56" value="&lt;font style=&quot;font-size: 11px;&quot;&gt;delete uni&lt;/font&gt;" style="text;strokeColor=none;fillColor=none;align=left;verticalAlign=middle;spacingLeft=4;spacingRight=4;overflow=hidden;points=[[0,0.5],[1,0.5]];portConstraint=eastwest;rotatable=0;whiteSpace=wrap;html=1;" vertex="1" parent="T-i3WnVVgZQzShkGEVg3-1">
          <mxGeometry y="90" width="100" height="30" as="geometry" />
        </mxCell>
        <mxCell id="T-i3WnVVgZQzShkGEVg3-58" value="&lt;font style=&quot;font-size: 11px;&quot;&gt;delete all uni&lt;/font&gt;" style="text;strokeColor=none;fillColor=none;align=left;verticalAlign=middle;spacingLeft=4;spacingRight=4;overflow=hidden;points=[[0,0.5],[1,0.5]];portConstraint=eastwest;rotatable=0;whiteSpace=wrap;html=1;" vertex="1" parent="T-i3WnVVgZQzShkGEVg3-1">
          <mxGeometry y="120" width="100" height="30" as="geometry" />
        </mxCell>
        <mxCell id="T-i3WnVVgZQzShkGEVg3-55" value="get uni" style="text;strokeColor=none;fillColor=none;align=left;verticalAlign=middle;spacingLeft=4;spacingRight=4;overflow=hidden;points=[[0,0.5],[1,0.5]];portConstraint=eastwest;rotatable=0;whiteSpace=wrap;html=1;" vertex="1" parent="T-i3WnVVgZQzShkGEVg3-1">
          <mxGeometry y="150" width="100" height="30" as="geometry" />
        </mxCell>
        <mxCell id="T-i3WnVVgZQzShkGEVg3-3" value="&lt;font style=&quot;font-size: 11px;&quot;&gt;upload uni via ex&lt;/font&gt;" style="text;strokeColor=none;fillColor=none;align=left;verticalAlign=middle;spacingLeft=4;spacingRight=4;overflow=hidden;points=[[0,0.5],[1,0.5]];portConstraint=eastwest;rotatable=0;whiteSpace=wrap;html=1;" vertex="1" parent="T-i3WnVVgZQzShkGEVg3-1">
          <mxGeometry y="180" width="100" height="30" as="geometry" />
        </mxCell>
        <mxCell id="T-i3WnVVgZQzShkGEVg3-4" value="get user uni" style="text;strokeColor=none;fillColor=none;align=left;verticalAlign=middle;spacingLeft=4;spacingRight=4;overflow=hidden;points=[[0,0.5],[1,0.5]];portConstraint=eastwest;rotatable=0;whiteSpace=wrap;html=1;" vertex="1" parent="T-i3WnVVgZQzShkGEVg3-1">
          <mxGeometry y="210" width="100" height="30" as="geometry" />
        </mxCell>
        <mxCell id="T-i3WnVVgZQzShkGEVg3-5" value="" style="endArrow=none;html=1;rounded=0;exitX=1;exitY=0;exitDx=0;exitDy=0;" edge="1" parent="1" source="T-i3WnVVgZQzShkGEVg3-1">
          <mxGeometry width="50" height="50" relative="1" as="geometry">
            <mxPoint x="180" y="627" as="sourcePoint" />
            <mxPoint x="240" y="587" as="targetPoint" />
          </mxGeometry>
        </mxCell>
        <mxCell id="T-i3WnVVgZQzShkGEVg3-59" value="" style="endArrow=none;dashed=1;html=1;dashPattern=1 3;strokeWidth=2;rounded=0;entryX=0.5;entryY=1;entryDx=0;entryDy=0;" edge="1" parent="1" target="kuwjXqPEBo-wIi-cXMix-31">
          <mxGeometry width="50" height="50" relative="1" as="geometry">
            <mxPoint x="600" y="460" as="sourcePoint" />
            <mxPoint x="870" y="250" as="targetPoint" />
          </mxGeometry>
        </mxCell>
        <mxCell id="T-i3WnVVgZQzShkGEVg3-60" value="" style="endArrow=none;html=1;rounded=0;entryX=1;entryY=0.25;entryDx=0;entryDy=0;" edge="1" parent="1" target="T-i3WnVVgZQzShkGEVg3-61">
          <mxGeometry width="50" height="50" relative="1" as="geometry">
            <mxPoint x="600" y="227" as="sourcePoint" />
            <mxPoint x="480" y="220" as="targetPoint" />
          </mxGeometry>
        </mxCell>
        <mxCell id="T-i3WnVVgZQzShkGEVg3-61" value="project req" style="swimlane;fontStyle=0;childLayout=stackLayout;horizontal=1;startSize=30;horizontalStack=0;resizeParent=1;resizeParentMax=0;resizeLast=0;collapsible=1;marginBottom=0;whiteSpace=wrap;html=1;" vertex="1" parent="1">
          <mxGeometry x="440.32" y="197" width="104.68" height="120" as="geometry" />
        </mxCell>
        <mxCell id="T-i3WnVVgZQzShkGEVg3-62" value="request for pro" style="text;strokeColor=none;fillColor=none;align=left;verticalAlign=middle;spacingLeft=4;spacingRight=4;overflow=hidden;points=[[0,0.5],[1,0.5]];portConstraint=eastwest;rotatable=0;whiteSpace=wrap;html=1;" vertex="1" parent="T-i3WnVVgZQzShkGEVg3-61">
          <mxGeometry y="30" width="104.68" height="30" as="geometry" />
        </mxCell>
        <mxCell id="T-i3WnVVgZQzShkGEVg3-63" value="&lt;font style=&quot;font-size: 9px;&quot;&gt;update project status&lt;/font&gt;" style="text;strokeColor=none;fillColor=none;align=left;verticalAlign=middle;spacingLeft=4;spacingRight=4;overflow=hidden;points=[[0,0.5],[1,0.5]];portConstraint=eastwest;rotatable=0;whiteSpace=wrap;html=1;" vertex="1" parent="T-i3WnVVgZQzShkGEVg3-61">
          <mxGeometry y="60" width="104.68" height="30" as="geometry" />
        </mxCell>
        <mxCell id="T-i3WnVVgZQzShkGEVg3-64" value="&lt;font style=&quot;font-size: 9px;&quot;&gt;choose free lancer&lt;/font&gt;" style="text;strokeColor=none;fillColor=none;align=left;verticalAlign=middle;spacingLeft=4;spacingRight=4;overflow=hidden;points=[[0,0.5],[1,0.5]];portConstraint=eastwest;rotatable=0;whiteSpace=wrap;html=1;" vertex="1" parent="T-i3WnVVgZQzShkGEVg3-61">
          <mxGeometry y="90" width="104.68" height="30" as="geometry" />
        </mxCell>
        <mxCell id="T-i3WnVVgZQzShkGEVg3-65" value="useconfirm&lt;div&gt;auth guard&lt;/div&gt;" style="text;html=1;align=center;verticalAlign=middle;whiteSpace=wrap;rounded=0;" vertex="1" parent="1">
          <mxGeometry x="1109" width="60" height="30" as="geometry" />
        </mxCell>
        <mxCell id="T-i3WnVVgZQzShkGEVg3-66" value="organization" style="swimlane;fontStyle=0;childLayout=stackLayout;horizontal=1;startSize=30;horizontalStack=0;resizeParent=1;resizeParentMax=0;resizeLast=0;collapsible=1;marginBottom=0;whiteSpace=wrap;html=1;" vertex="1" parent="1">
          <mxGeometry x="440" y="330" width="104.68" height="90" as="geometry" />
        </mxCell>
        <mxCell id="T-i3WnVVgZQzShkGEVg3-67" value="create org" style="text;strokeColor=none;fillColor=none;align=left;verticalAlign=middle;spacingLeft=4;spacingRight=4;overflow=hidden;points=[[0,0.5],[1,0.5]];portConstraint=eastwest;rotatable=0;whiteSpace=wrap;html=1;" vertex="1" parent="T-i3WnVVgZQzShkGEVg3-66">
          <mxGeometry y="30" width="104.68" height="30" as="geometry" />
        </mxCell>
        <mxCell id="T-i3WnVVgZQzShkGEVg3-68" value="&lt;font style=&quot;font-size: 12px;&quot;&gt;delete org&lt;/font&gt;" style="text;strokeColor=none;fillColor=none;align=left;verticalAlign=middle;spacingLeft=4;spacingRight=4;overflow=hidden;points=[[0,0.5],[1,0.5]];portConstraint=eastwest;rotatable=0;whiteSpace=wrap;html=1;" vertex="1" parent="T-i3WnVVgZQzShkGEVg3-66">
          <mxGeometry y="60" width="104.68" height="30" as="geometry" />
        </mxCell>
        <mxCell id="T-i3WnVVgZQzShkGEVg3-70" value="" style="endArrow=none;html=1;rounded=0;exitX=0.987;exitY=0.001;exitDx=0;exitDy=0;exitPerimeter=0;" edge="1" parent="1" source="T-i3WnVVgZQzShkGEVg3-67">
          <mxGeometry width="50" height="50" relative="1" as="geometry">
            <mxPoint x="620" y="370" as="sourcePoint" />
            <mxPoint x="600" y="360" as="targetPoint" />
          </mxGeometry>
        </mxCell>
        <mxCell id="T-i3WnVVgZQzShkGEVg3-71" value="project" style="swimlane;fontStyle=0;childLayout=stackLayout;horizontal=1;startSize=30;horizontalStack=0;resizeParent=1;resizeParentMax=0;resizeLast=0;collapsible=1;marginBottom=0;whiteSpace=wrap;html=1;" vertex="1" parent="1">
          <mxGeometry x="650.3199999999999" y="197" width="104.68" height="240" as="geometry" />
        </mxCell>
        <mxCell id="T-i3WnVVgZQzShkGEVg3-72" value="create pro" style="text;strokeColor=none;fillColor=none;align=left;verticalAlign=middle;spacingLeft=4;spacingRight=4;overflow=hidden;points=[[0,0.5],[1,0.5]];portConstraint=eastwest;rotatable=0;whiteSpace=wrap;html=1;" vertex="1" parent="T-i3WnVVgZQzShkGEVg3-71">
          <mxGeometry y="30" width="104.68" height="30" as="geometry" />
        </mxCell>
        <mxCell id="T-i3WnVVgZQzShkGEVg3-73" value="&lt;font style=&quot;font-size: 12px;&quot;&gt;update pro&lt;/font&gt;" style="text;strokeColor=none;fillColor=none;align=left;verticalAlign=middle;spacingLeft=4;spacingRight=4;overflow=hidden;points=[[0,0.5],[1,0.5]];portConstraint=eastwest;rotatable=0;whiteSpace=wrap;html=1;" vertex="1" parent="T-i3WnVVgZQzShkGEVg3-71">
          <mxGeometry y="60" width="104.68" height="30" as="geometry" />
        </mxCell>
        <mxCell id="T-i3WnVVgZQzShkGEVg3-74" value="&lt;font style=&quot;font-size: 12px;&quot;&gt;delete pro&lt;/font&gt;" style="text;strokeColor=none;fillColor=none;align=left;verticalAlign=middle;spacingLeft=4;spacingRight=4;overflow=hidden;points=[[0,0.5],[1,0.5]];portConstraint=eastwest;rotatable=0;whiteSpace=wrap;html=1;" vertex="1" parent="T-i3WnVVgZQzShkGEVg3-71">
          <mxGeometry y="90" width="104.68" height="30" as="geometry" />
        </mxCell>
        <mxCell id="T-i3WnVVgZQzShkGEVg3-81" value="&lt;font style=&quot;font-size: 12px;&quot;&gt;highlight pro&lt;/font&gt;" style="text;strokeColor=none;fillColor=none;align=left;verticalAlign=middle;spacingLeft=4;spacingRight=4;overflow=hidden;points=[[0,0.5],[1,0.5]];portConstraint=eastwest;rotatable=0;whiteSpace=wrap;html=1;" vertex="1" parent="T-i3WnVVgZQzShkGEVg3-71">
          <mxGeometry y="120" width="104.68" height="30" as="geometry" />
        </mxCell>
        <mxCell id="T-i3WnVVgZQzShkGEVg3-84" value="&lt;font style=&quot;font-size: 12px;&quot;&gt;all employer pro&lt;/font&gt;" style="text;strokeColor=none;fillColor=none;align=left;verticalAlign=middle;spacingLeft=4;spacingRight=4;overflow=hidden;points=[[0,0.5],[1,0.5]];portConstraint=eastwest;rotatable=0;whiteSpace=wrap;html=1;" vertex="1" parent="T-i3WnVVgZQzShkGEVg3-71">
          <mxGeometry y="150" width="104.68" height="30" as="geometry" />
        </mxCell>
        <mxCell id="T-i3WnVVgZQzShkGEVg3-83" value="&lt;font style=&quot;font-size: 12px;&quot;&gt;create sub pro&lt;/font&gt;" style="text;strokeColor=none;fillColor=none;align=left;verticalAlign=middle;spacingLeft=4;spacingRight=4;overflow=hidden;points=[[0,0.5],[1,0.5]];portConstraint=eastwest;rotatable=0;whiteSpace=wrap;html=1;" vertex="1" parent="T-i3WnVVgZQzShkGEVg3-71">
          <mxGeometry y="180" width="104.68" height="30" as="geometry" />
        </mxCell>
        <mxCell id="T-i3WnVVgZQzShkGEVg3-80" value="&lt;font style=&quot;font-size: 12px;&quot;&gt;update sub pro&lt;/font&gt;" style="text;strokeColor=none;fillColor=none;align=left;verticalAlign=middle;spacingLeft=4;spacingRight=4;overflow=hidden;points=[[0,0.5],[1,0.5]];portConstraint=eastwest;rotatable=0;whiteSpace=wrap;html=1;" vertex="1" parent="T-i3WnVVgZQzShkGEVg3-71">
          <mxGeometry y="210" width="104.68" height="30" as="geometry" />
        </mxCell>
        <mxCell id="T-i3WnVVgZQzShkGEVg3-75" value="" style="endArrow=none;html=1;rounded=0;entryX=0.006;entryY=0;entryDx=0;entryDy=0;entryPerimeter=0;" edge="1" parent="1" target="T-i3WnVVgZQzShkGEVg3-72">
          <mxGeometry width="50" height="50" relative="1" as="geometry">
            <mxPoint x="600" y="227" as="sourcePoint" />
            <mxPoint x="645" y="217" as="targetPoint" />
          </mxGeometry>
        </mxCell>
        <mxCell id="T-i3WnVVgZQzShkGEVg3-85" value="rate" style="swimlane;fontStyle=0;childLayout=stackLayout;horizontal=1;startSize=30;horizontalStack=0;resizeParent=1;resizeParentMax=0;resizeLast=0;collapsible=1;marginBottom=0;whiteSpace=wrap;html=1;" vertex="1" parent="1">
          <mxGeometry x="440" y="430" width="101.11" height="120" as="geometry" />
        </mxCell>
        <mxCell id="T-i3WnVVgZQzShkGEVg3-86" value="all rating&amp;nbsp;" style="text;strokeColor=none;fillColor=none;align=left;verticalAlign=middle;spacingLeft=4;spacingRight=4;overflow=hidden;points=[[0,0.5],[1,0.5]];portConstraint=eastwest;rotatable=0;whiteSpace=wrap;html=1;" vertex="1" parent="T-i3WnVVgZQzShkGEVg3-85">
          <mxGeometry y="30" width="101.11" height="30" as="geometry" />
        </mxCell>
        <mxCell id="T-i3WnVVgZQzShkGEVg3-87" value="create rating&amp;nbsp;" style="text;strokeColor=none;fillColor=none;align=left;verticalAlign=middle;spacingLeft=4;spacingRight=4;overflow=hidden;points=[[0,0.5],[1,0.5]];portConstraint=eastwest;rotatable=0;whiteSpace=wrap;html=1;" vertex="1" parent="T-i3WnVVgZQzShkGEVg3-85">
          <mxGeometry y="60" width="101.11" height="30" as="geometry" />
        </mxCell>
        <mxCell id="T-i3WnVVgZQzShkGEVg3-88" value="update rating" style="text;strokeColor=none;fillColor=none;align=left;verticalAlign=middle;spacingLeft=4;spacingRight=4;overflow=hidden;points=[[0,0.5],[1,0.5]];portConstraint=eastwest;rotatable=0;whiteSpace=wrap;html=1;" vertex="1" parent="T-i3WnVVgZQzShkGEVg3-85">
          <mxGeometry y="90" width="101.11" height="30" as="geometry" />
        </mxCell>
        <mxCell id="T-i3WnVVgZQzShkGEVg3-89" value="" style="endArrow=none;html=1;rounded=0;exitX=1;exitY=0.25;exitDx=0;exitDy=0;" edge="1" parent="1" source="T-i3WnVVgZQzShkGEVg3-85">
          <mxGeometry width="50" height="50" relative="1" as="geometry">
            <mxPoint x="550" y="440" as="sourcePoint" />
            <mxPoint x="600" y="460" as="targetPoint" />
          </mxGeometry>
        </mxCell>
      </root>
    </mxGraphModel>
  </diagram>
</mxfile>
